<?xml version="1.0" encoding="utf-8"?>
<!-- Generator: Adobe Illustrator 16.0.0, SVG Export Plug-In . SVG Version: 6.00 Build 0)  -->
<!DOCTYPE svg PUBLIC "-//W3C//DTD SVG 1.1//EN" "http://www.w3.org/Graphics/SVG/1.1/DTD/svg11.dtd">
<svg version="1.1" id="图层_1" xmlns="http://www.w3.org/2000/svg" xmlns:xlink="http://www.w3.org/1999/xlink" x="0px" y="0px"
	 width="878px" height="196px" viewBox="0 0 878 196" enable-background="new 0 0 878 196" xml:space="preserve">
<g id="icon">
	
		<linearGradient id="SVGID_1_" gradientUnits="userSpaceOnUse" x1="51.9011" y1="525.3184" x2="247.901" y2="719.3182" gradientTransform="matrix(1 0 0 1 -0.04 -562.8105)">
		<stop  offset="0" style="stop-color:#35A8FF"/>
		<stop  offset="1" style="stop-color:#0755FF"/>
	</linearGradient>
	<path fill="url(#SVGID_1_)" d="M4.75,98c0-54.124,51.935-98,116-98c64.063,0,116,43.876,116,98c0,54.125-51.937,98-116,98
		C56.685,196,4.75,152.125,4.75,98z M140.75,98c0-54.124,51.935-98,116-98c64.063,0,116,43.876,116,98c0,54.125-51.937,98-116,98
		C192.685,196,140.75,152.125,140.75,98z"/>
	
		<linearGradient id="SVGID_2_" gradientUnits="userSpaceOnUse" x1="164.9939" y1="72.8223" x2="238.9311" y2="148.2999" gradientTransform="matrix(1 0 0 -1 -0.02 195.0947)">
		<stop  offset="0" style="stop-color:#82D1FF"/>
		<stop  offset="1" style="stop-color:#2186FF"/>
	</linearGradient>
	<path fill="url(#SVGID_2_)" d="M140.75,98c0,32.664,18.919,61.59,48,79.396c29.081-17.809,48-46.732,48-79.396
		c0-32.662-18.919-61.588-48-79.396C159.67,36.413,140.75,65.338,140.75,98z"/>
</g>
<g>
	<path id="path1" fill="#646C7A" d="M400.803,43.956c5.577,12.882,12.731,25.384,18.735,37.841
		c6.785,13.22,13.575,27.061,20.364,40.104c3.771,6.289,5.85,14.408,11.448,19.729c8.734,6.524,22.543,2.83,26.245-7.762
		c6.14-12.942,13.14-25.779,19.829-38.828c8.095-16.611,17.264-32.701,25.128-49.604c-0.009-3.961-11.053-0.959-15.252-1.782
		c-6.883-1.733-7.607,7.24-10.308,11.481c-8.416,14.667-15.948,31.104-23.812,46.061c-4.202,6.602-6.726,14.997-11.563,21.262
		c-6.383-12.043-12.741-25.186-18.94-37.084c-5.298-10.739-10.911-21.605-16.21-32.531c-2.622-3.979-3.072-11.071-9.733-9.01
		C411.456,44.009,405.976,42.958,400.803,43.956z"/>
	<path id="path2" fill="#646C7A" d="M544.235,43.156c-1.916,7.178-0.229,15.846-0.798,23.58c0,25.611,0,51.223,0,76.833
		c5.127,1.938,11.771,0.216,17.458,0.802c3.174-4.684,0.475-12.104,1.369-17.816c-0.153-27.6,0.306-55.274-0.229-82.827
		C556.533,42.335,550.031,43.581,544.235,43.156z"/>
	<path id="path3" fill="#646C7A" d="M775.321,42.813c-1.941,9.302-1.108,19.812-0.744,29.442c0.492,16.826-2.13,34.256,5.951,49.066
		c7.159,14.217,21.063,23.786,35.85,25.329c13.843,1.86,28.586-2.044,38.659-13.147c1.741,3.14,1.079,11.15,0.271,15.431
		c-0.968,15.495-14.404,28.58-28.644,28.526c-11.087,1.578-25.13-3.545-30.128-15.635c-4.881-2.479-10.929,0.113-16.432-0.798
		c-5.405,0.655,0.929,9.308,2.004,12.778c8.428,13.511,22.771,21.824,37.767,21.91c13.354,1.469,28.322-2.762,38.297-13.017
		c12.563-11.819,15.853-30.161,14.934-47.1c-0.063-30.815-0.125-61.631-0.188-92.446c-5.28-0.181-12.086-1.346-16.763,0.57
		c-0.547,19.275,0.817,39.042-1.009,57.968c-2.729,14.606-15.559,26.979-29.544,27.041c-12.185,1.608-26.557-6.507-30.976-19.968
		c-4.242-15.024-2.945-38.44-2.972-46.784c0.65-6.205,0.716-12.195-0.424-19.17C785.93,42.813,780.625,42.813,775.321,42.813
		L775.321,42.813z"/>
	<path id="path4" fill="#646C7A" d="M728.288,1.507c-3.435,4.369-1.729,12.338-1.483,17.938c-0.137,15.918,0.021,31.198,0,46.381
		c0.179,20.786-0.27,41.92,0,63.254c-0.639,5.646-1.411,11.633,1.141,15.291c5.687-0.592,12.335,1.146,17.459-0.802
		c0.406-22.438,0.38-46.213,0.343-68.522c-0.163-24.188,0.364-48.664-0.343-72.626C740.513,0.29,733.762,2.116,728.288,1.507z"/>
	<path id="path5" fill="#646C7A" d="M592.844,1.735c-1.597,11.398-0.935,24.304-0.686,35.892
		c0.229,21.003-0.457,42.385,0.344,63.152c2.085,14.419,9.993,28.069,22.411,36.676c13.819,9.873,32.245,13.1,48.564,7.95
		c19-5.075,34.724-22.069,38.302-40.97c4.46-20.852-4.445-43.225-21.76-55.233c-12.616-9.551-29.239-11.959-44.729-8.672
		c-9.009,2.269-17.104,7.398-23.735,13.464c-1.063-16.901-0.152-34.268-0.455-51.348C606.496-0.021,598.379,2.455,592.844,1.735z
		 M640.996,57.647c12.436-1.299,25.418,1.912,33.812,11.771c10.583,11.869,11.861,30.629,3.146,43.718
		c-10.012,16.041-32.632,21.237-48.84,11.73c-19.077-10.45-24.107-38.116-9.888-54.474
		C624.831,63.612,632.785,59.613,640.996,57.647z"/>
	<path id="path6" fill="#646C7A" d="M551.079,1.507c-10.52,1.395-13.59,17.431-3.879,21.909c7.279,5.268,19.401-1.742,17.523-11.336
		C564.765,5.463,557.329,0.418,551.079,1.507z"/>
</g>
</svg>
